<svg width="435" height="399" viewBox="0 0 435 399" fill="none" xmlns="http://www.w3.org/2000/svg">
<path d="M245 208.5H232.5L224.5 223H245V208.5Z" fill="#FF0000" stroke="#FF0000"/>
<path d="M245.5 197.5V182L238 197.5H245.5Z" fill="#FF0000" stroke="#FF0000"/>
<path d="M86 331L14 187H0L70.5 331H86Z" fill="#FF0000" stroke="#FF0000"/>
<path d="M26.5 187H41L112 330.5H97L26.5 187Z" fill="#FF0000" stroke="#FF0000"/>
<path d="M91.5 187H77.5L149 329.5H163L91.5 187Z" fill="#FF0000" stroke="#FF0000"/>
<path d="M52.5 187H67.5L139.5 330H124L52.5 187Z" fill="#FF0000" stroke="#FF0000"/>
<path d="M263.5 67.5H248.5L146 281.5L153.5 296L263.5 67.5Z" fill="black" stroke="black"/>
<path d="M292 67H275L159 307.5L166.5 323L292 67Z" fill="black" stroke="black"/>
<path d="M211 67H194.5L119 228L127.5 242.5L211 67Z" fill="black" stroke="black"/>
<path d="M236 67L138.5 268.5L130.5 254.5L220.5 67H236Z" fill="black" stroke="black"/>
<path fill-rule="evenodd" clip-rule="evenodd" d="M253.5 163L260.776 148H388.837L396.113 163H253.5Z" fill="#FF0000"/>
<path fill-rule="evenodd" clip-rule="evenodd" d="M266.597 136L273.873 121H375.74L383.016 136H266.597Z" fill="#FF0000"/>
<path fill-rule="evenodd" clip-rule="evenodd" d="M279.694 109L286.971 94H362.643L369.919 109H279.694Z" fill="#FF0000"/>
<path fill-rule="evenodd" clip-rule="evenodd" d="M292.791 82L300.068 67H349.546L356.822 82H292.791Z" fill="#FF0000"/>
<path d="M432.5 235.5H217L209 250.5H426L432.5 235.5Z" fill="#010101" stroke="black"/>
<path d="M418.5 263H203L195.5 277H412.5L418.5 263Z" fill="#010101" stroke="black"/>
<path d="M405.5 290H190L196 304H400.5L405.5 290Z" fill="#010101" stroke="black"/>
<path d="M203 316H393.5L386 331.5H210L203 316Z" fill="#010101" stroke="black"/>
<path d="M1.17676 11.8984H6.19873L19.0088 43.7759L31.792 11.8984H36.8408L20.9424 51H17.0215L1.17676 11.8984ZM-0.461426 11.8984H3.96973L4.69482 35.7461V51H-0.461426V11.8984ZM34.021 11.8984H38.4521V51H33.2959V35.7461L34.021 11.8984ZM69.9268 11.8984H75.083V38.3511C75.083 41.2873 74.4295 43.7311 73.1226 45.6826C71.8156 47.6341 70.0789 49.1022 67.9126 50.0869C65.7642 51.0537 63.4277 51.5371 60.9033 51.5371C58.2536 51.5371 55.8545 51.0537 53.7061 50.0869C51.5755 49.1022 49.8836 47.6341 48.6304 45.6826C47.395 43.7311 46.7773 41.2873 46.7773 38.3511V11.8984H51.9067V38.3511C51.9067 40.3921 52.2827 42.075 53.0347 43.3999C53.7866 44.7248 54.834 45.7095 56.1768 46.354C57.5374 46.9985 59.113 47.3208 60.9033 47.3208C62.7116 47.3208 64.2871 46.9985 65.6299 46.354C66.9906 45.7095 68.0469 44.7248 68.7988 43.3999C69.5508 42.075 69.9268 40.3921 69.9268 38.3511V11.8984ZM106.934 46.7837V51H87.3828V46.7837H106.934ZM88.4033 11.8984V51H83.2202V11.8984H88.4033ZM119.905 11.8984V51H114.802V11.8984H119.905ZM132.473 11.8984V16.1416H102.261V11.8984H132.473ZM143.833 11.8984V51H138.65V11.8984H143.833Z" fill="black"/>
<path d="M191.378 41.1172C191.378 40.2041 191.235 39.3984 190.949 38.7002C190.68 37.984 190.197 37.3395 189.499 36.7666C188.818 36.1937 187.869 35.6476 186.652 35.1284C185.452 34.6092 183.931 34.0811 182.086 33.5439C180.153 32.971 178.407 32.3354 176.85 31.6372C175.292 30.9211 173.958 30.1064 172.848 29.1934C171.738 28.2803 170.888 27.2329 170.297 26.0513C169.706 24.8696 169.411 23.5179 169.411 21.9961C169.411 20.4743 169.724 19.0688 170.351 17.7798C170.977 16.4907 171.872 15.3717 173.036 14.4229C174.218 13.4561 175.623 12.7041 177.252 12.167C178.882 11.6299 180.699 11.3613 182.704 11.3613C185.64 11.3613 188.129 11.9253 190.17 13.0532C192.229 14.1632 193.795 15.6224 194.87 17.4307C195.944 19.221 196.481 21.1367 196.481 23.1777H191.325C191.325 21.7096 191.011 20.4116 190.385 19.2837C189.758 18.1379 188.809 17.2427 187.538 16.5981C186.267 15.9357 184.656 15.6045 182.704 15.6045C180.86 15.6045 179.338 15.882 178.139 16.437C176.939 16.992 176.044 17.744 175.453 18.6929C174.88 19.6418 174.594 20.7249 174.594 21.9424C174.594 22.766 174.764 23.5179 175.104 24.1982C175.462 24.8607 176.008 25.4784 176.742 26.0513C177.494 26.6242 178.443 27.1523 179.589 27.6357C180.753 28.1191 182.14 28.5846 183.751 29.0322C185.972 29.6589 187.887 30.3571 189.499 31.127C191.11 31.8968 192.435 32.7651 193.473 33.7319C194.529 34.6808 195.308 35.764 195.81 36.9814C196.329 38.181 196.588 39.5417 196.588 41.0635C196.588 42.6569 196.266 44.0981 195.622 45.3872C194.977 46.6763 194.055 47.7773 192.855 48.6904C191.656 49.6035 190.215 50.3107 188.532 50.812C186.867 51.2954 185.005 51.5371 182.946 51.5371C181.138 51.5371 179.356 51.2865 177.602 50.7852C175.865 50.2839 174.28 49.5319 172.848 48.5293C171.434 47.5267 170.297 46.2913 169.438 44.8232C168.596 43.3372 168.175 41.6185 168.175 39.667H173.332C173.332 41.0098 173.591 42.1646 174.11 43.1313C174.63 44.0802 175.337 44.868 176.232 45.4946C177.145 46.1213 178.174 46.5868 179.32 46.8911C180.484 47.1776 181.693 47.3208 182.946 47.3208C184.754 47.3208 186.285 47.0701 187.538 46.5688C188.791 46.0675 189.74 45.3514 190.385 44.4204C191.047 43.4894 191.378 42.3883 191.378 41.1172ZM228.036 46.7837V51H207.331V46.7837H228.036ZM208.378 11.8984V51H203.195V11.8984H208.378ZM225.297 28.71V32.9263H207.331V28.71H225.297ZM227.768 11.8984V16.1416H207.331V11.8984H227.768ZM234.455 11.8984H247.399C250.335 11.8984 252.815 12.346 254.838 13.2412C256.879 14.1364 258.428 15.4613 259.484 17.2158C260.558 18.9525 261.095 21.092 261.095 23.6343C261.095 25.4246 260.728 27.0628 259.994 28.5488C259.278 30.0169 258.24 31.2702 256.879 32.3086C255.536 33.3291 253.925 34.09 252.045 34.5913L250.595 35.1553H238.429L238.375 30.939H247.56C249.422 30.939 250.971 30.6167 252.206 29.9722C253.441 29.3097 254.372 28.4235 254.999 27.3135C255.626 26.2035 255.939 24.9771 255.939 23.6343C255.939 22.1304 255.644 20.8145 255.053 19.6865C254.462 18.5586 253.531 17.6903 252.26 17.0815C251.007 16.4549 249.386 16.1416 247.399 16.1416H239.638V51H234.455V11.8984ZM257.309 51L247.802 33.2754L253.2 33.2485L262.841 50.6777V51H257.309ZM280.431 45.0649L291.952 11.8984H297.565L283.09 51H279.088L280.431 45.0649ZM269.662 11.8984L281.076 45.0649L282.499 51H278.498L264.049 11.8984H269.662ZM308.388 11.8984V51H303.205V11.8984H308.388ZM341.42 38.5659H346.576C346.308 41.0366 345.6 43.2477 344.455 45.1992C343.309 47.1507 341.688 48.6994 339.594 49.8452C337.499 50.9731 334.885 51.5371 331.752 51.5371C329.46 51.5371 327.375 51.1074 325.495 50.248C323.633 49.3887 322.03 48.1712 320.688 46.5957C319.345 45.0023 318.306 43.0955 317.572 40.8755C316.856 38.6375 316.498 36.1489 316.498 33.4097V29.5156C316.498 26.7764 316.856 24.2967 317.572 22.0767C318.306 19.8387 319.354 17.923 320.714 16.3296C322.093 14.7362 323.749 13.5098 325.683 12.6504C327.616 11.791 329.792 11.3613 332.208 11.3613C335.163 11.3613 337.66 11.9163 339.701 13.0264C341.742 14.1364 343.327 15.6761 344.455 17.6455C345.6 19.597 346.308 21.8618 346.576 24.4399H341.42C341.169 22.6138 340.704 21.0472 340.023 19.7402C339.343 18.4154 338.376 17.3949 337.123 16.6787C335.87 15.9626 334.232 15.6045 332.208 15.6045C330.472 15.6045 328.941 15.9357 327.616 16.5981C326.309 17.2606 325.208 18.2005 324.313 19.418C323.436 20.6354 322.773 22.0946 322.326 23.7954C321.878 25.4963 321.654 27.3851 321.654 29.4619V33.4097C321.654 35.3254 321.851 37.1247 322.245 38.8076C322.657 40.4906 323.275 41.9676 324.098 43.2388C324.922 44.5099 325.969 45.5125 327.24 46.2466C328.511 46.9627 330.015 47.3208 331.752 47.3208C333.954 47.3208 335.709 46.9717 337.016 46.2734C338.323 45.5752 339.307 44.5726 339.97 43.2656C340.65 41.9587 341.133 40.3921 341.42 38.5659ZM359.198 11.8984V51H354.015V11.8984H359.198ZM398.729 30.2139V32.6846C398.729 35.6208 398.362 38.2526 397.628 40.5801C396.894 42.9076 395.838 44.8859 394.459 46.5151C393.081 48.1444 391.425 49.3887 389.491 50.248C387.576 51.1074 385.427 51.5371 383.046 51.5371C380.736 51.5371 378.615 51.1074 376.681 50.248C374.765 49.3887 373.1 48.1444 371.686 46.5151C370.29 44.8859 369.206 42.9076 368.437 40.5801C367.667 38.2526 367.282 35.6208 367.282 32.6846V30.2139C367.282 27.2777 367.658 24.6548 368.41 22.3452C369.18 20.0177 370.263 18.0394 371.659 16.4102C373.056 14.763 374.712 13.5098 376.627 12.6504C378.561 11.791 380.683 11.3613 382.992 11.3613C385.373 11.3613 387.522 11.791 389.438 12.6504C391.371 13.5098 393.027 14.763 394.406 16.4102C395.802 18.0394 396.868 20.0177 397.602 22.3452C398.354 24.6548 398.729 27.2777 398.729 30.2139ZM393.6 32.6846V30.1602C393.6 27.8327 393.358 25.7738 392.875 23.9834C392.41 22.193 391.72 20.6891 390.807 19.4717C389.894 18.2542 388.775 17.3322 387.45 16.7056C386.143 16.0789 384.657 15.7656 382.992 15.7656C381.381 15.7656 379.922 16.0789 378.615 16.7056C377.326 17.3322 376.216 18.2542 375.285 19.4717C374.372 20.6891 373.664 22.193 373.163 23.9834C372.662 25.7738 372.411 27.8327 372.411 30.1602V32.6846C372.411 35.0299 372.662 37.1068 373.163 38.915C373.664 40.7054 374.381 42.2183 375.312 43.4536C376.26 44.6711 377.379 45.5931 378.668 46.2197C379.975 46.8464 381.435 47.1597 383.046 47.1597C384.729 47.1597 386.224 46.8464 387.531 46.2197C388.838 45.5931 389.939 44.6711 390.834 43.4536C391.747 42.2183 392.436 40.7054 392.902 38.915C393.367 37.1068 393.6 35.0299 393.6 32.6846ZM427.331 41.1172C427.331 40.2041 427.187 39.3984 426.901 38.7002C426.632 37.984 426.149 37.3395 425.451 36.7666C424.77 36.1937 423.821 35.6476 422.604 35.1284C421.404 34.6092 419.883 34.0811 418.039 33.5439C416.105 32.971 414.359 32.3354 412.802 31.6372C411.244 30.9211 409.91 30.1064 408.8 29.1934C407.69 28.2803 406.84 27.2329 406.249 26.0513C405.658 24.8696 405.363 23.5179 405.363 21.9961C405.363 20.4743 405.676 19.0688 406.303 17.7798C406.929 16.4907 407.825 15.3717 408.988 14.4229C410.17 13.4561 411.575 12.7041 413.205 12.167C414.834 11.6299 416.651 11.3613 418.656 11.3613C421.592 11.3613 424.081 11.9253 426.122 13.0532C428.181 14.1632 429.748 15.6224 430.822 17.4307C431.896 19.221 432.433 21.1367 432.433 23.1777H427.277C427.277 21.7096 426.964 20.4116 426.337 19.2837C425.71 18.1379 424.761 17.2427 423.49 16.5981C422.219 15.9357 420.608 15.6045 418.656 15.6045C416.812 15.6045 415.29 15.882 414.091 16.437C412.891 16.992 411.996 17.744 411.405 18.6929C410.832 19.6418 410.546 20.7249 410.546 21.9424C410.546 22.766 410.716 23.5179 411.056 24.1982C411.414 24.8607 411.96 25.4784 412.694 26.0513C413.446 26.6242 414.395 27.1523 415.541 27.6357C416.705 28.1191 418.092 28.5846 419.704 29.0322C421.924 29.6589 423.839 30.3571 425.451 31.127C427.062 31.8968 428.387 32.7651 429.425 33.7319C430.482 34.6808 431.26 35.764 431.762 36.9814C432.281 38.181 432.541 39.5417 432.541 41.0635C432.541 42.6569 432.218 44.0981 431.574 45.3872C430.929 46.6763 430.007 47.7773 428.808 48.6904C427.608 49.6035 426.167 50.3107 424.484 50.812C422.819 51.2954 420.957 51.5371 418.898 51.5371C417.09 51.5371 415.308 51.2865 413.554 50.7852C411.817 50.2839 410.233 49.5319 408.8 48.5293C407.386 47.5267 406.249 46.2913 405.39 44.8232C404.548 43.3372 404.127 41.6185 404.127 39.667H409.284C409.284 41.0098 409.543 42.1646 410.062 43.1313C410.582 44.0802 411.289 44.868 412.184 45.4946C413.097 46.1213 414.127 46.5868 415.272 46.8911C416.436 47.1776 417.645 47.3208 418.898 47.3208C420.706 47.3208 422.237 47.0701 423.49 46.5688C424.743 46.0675 425.692 45.3514 426.337 44.4204C426.999 43.4894 427.331 42.3883 427.331 41.1172Z" fill="#FF0000"/>
<path d="M35.1606 380.065L46.6816 346.898H52.2944L37.8193 386H33.8179L35.1606 380.065ZM24.3916 346.898L35.8052 380.065L37.2285 386H33.2271L18.7788 346.898H24.3916ZM63.1172 346.898V386H57.9341V346.898H63.1172ZM83.1245 386H74.9604L75.0142 381.784H83.1245C85.9175 381.784 88.245 381.202 90.1069 380.038C91.9689 378.856 93.3654 377.209 94.2964 375.097C95.2453 372.966 95.7197 370.478 95.7197 367.631V365.241C95.7197 363.003 95.4512 361.015 94.9141 359.279C94.377 357.524 93.5892 356.047 92.5508 354.848C91.5124 353.63 90.2412 352.708 88.7373 352.082C87.2513 351.455 85.5415 351.142 83.6079 351.142H74.7993V346.898H83.6079C86.1681 346.898 88.5046 347.328 90.6172 348.188C92.7298 349.029 94.547 350.255 96.0688 351.867C97.6086 353.46 98.7902 355.394 99.6138 357.667C100.437 359.923 100.849 362.466 100.849 365.294V367.631C100.849 370.46 100.437 373.011 99.6138 375.285C98.7902 377.541 97.5996 379.465 96.042 381.059C94.5023 382.652 92.6403 383.878 90.4561 384.738C88.2897 385.579 85.8459 386 83.1245 386ZM77.7266 346.898V386H72.5435V346.898H77.7266ZM108.637 346.898H121.582C124.518 346.898 126.997 347.346 129.021 348.241C131.062 349.136 132.61 350.461 133.667 352.216C134.741 353.952 135.278 356.092 135.278 358.634C135.278 360.425 134.911 362.063 134.177 363.549C133.461 365.017 132.422 366.27 131.062 367.309C129.719 368.329 128.107 369.09 126.228 369.591L124.777 370.155H112.612L112.558 365.939H121.743C123.605 365.939 125.153 365.617 126.389 364.972C127.624 364.31 128.555 363.424 129.182 362.313C129.808 361.203 130.122 359.977 130.122 358.634C130.122 357.13 129.826 355.814 129.235 354.687C128.645 353.559 127.714 352.69 126.442 352.082C125.189 351.455 123.569 351.142 121.582 351.142H113.82V386H108.637V346.898ZM131.491 386L121.984 368.275L127.382 368.249L137.023 385.678V386H131.491ZM148.088 346.898V386H142.905V346.898H148.088ZM187.619 365.214V367.685C187.619 370.621 187.252 373.253 186.518 375.58C185.784 377.908 184.728 379.886 183.349 381.515C181.971 383.144 180.314 384.389 178.381 385.248C176.465 386.107 174.317 386.537 171.936 386.537C169.626 386.537 167.504 386.107 165.571 385.248C163.655 384.389 161.99 383.144 160.576 381.515C159.179 379.886 158.096 377.908 157.326 375.58C156.556 373.253 156.171 370.621 156.171 367.685V365.214C156.171 362.278 156.547 359.655 157.299 357.345C158.069 355.018 159.152 353.039 160.549 351.41C161.945 349.763 163.601 348.51 165.517 347.65C167.451 346.791 169.572 346.361 171.882 346.361C174.263 346.361 176.411 346.791 178.327 347.65C180.261 348.51 181.917 349.763 183.295 351.41C184.692 353.039 185.757 355.018 186.491 357.345C187.243 359.655 187.619 362.278 187.619 365.214ZM182.49 367.685V365.16C182.49 362.833 182.248 360.774 181.765 358.983C181.299 357.193 180.61 355.689 179.697 354.472C178.784 353.254 177.665 352.332 176.34 351.706C175.033 351.079 173.547 350.766 171.882 350.766C170.271 350.766 168.811 351.079 167.504 351.706C166.215 352.332 165.105 353.254 164.174 354.472C163.261 355.689 162.554 357.193 162.053 358.983C161.551 360.774 161.301 362.833 161.301 365.16V367.685C161.301 370.03 161.551 372.107 162.053 373.915C162.554 375.705 163.27 377.218 164.201 378.454C165.15 379.671 166.269 380.593 167.558 381.22C168.865 381.846 170.324 382.16 171.936 382.16C173.618 382.16 175.113 381.846 176.42 381.22C177.727 380.593 178.828 379.671 179.724 378.454C180.637 377.218 181.326 375.705 181.792 373.915C182.257 372.107 182.49 370.03 182.49 367.685Z" fill="black"/>
<path d="M236.145 373.566H241.301C241.032 376.037 240.325 378.248 239.179 380.199C238.033 382.151 236.413 383.699 234.318 384.845C232.224 385.973 229.61 386.537 226.477 386.537C224.185 386.537 222.099 386.107 220.219 385.248C218.357 384.389 216.755 383.171 215.412 381.596C214.069 380.002 213.031 378.096 212.297 375.875C211.581 373.638 211.223 371.149 211.223 368.41V364.516C211.223 361.776 211.581 359.297 212.297 357.077C213.031 354.839 214.078 352.923 215.439 351.33C216.818 349.736 218.474 348.51 220.407 347.65C222.341 346.791 224.516 346.361 226.933 346.361C229.887 346.361 232.385 346.916 234.426 348.026C236.467 349.136 238.051 350.676 239.179 352.646C240.325 354.597 241.032 356.862 241.301 359.44H236.145C235.894 357.614 235.428 356.047 234.748 354.74C234.068 353.415 233.101 352.395 231.848 351.679C230.594 350.963 228.956 350.604 226.933 350.604C225.196 350.604 223.666 350.936 222.341 351.598C221.034 352.261 219.933 353.201 219.038 354.418C218.16 355.635 217.498 357.095 217.05 358.795C216.603 360.496 216.379 362.385 216.379 364.462V368.41C216.379 370.325 216.576 372.125 216.97 373.808C217.382 375.491 217.999 376.968 218.823 378.239C219.646 379.51 220.694 380.513 221.965 381.247C223.236 381.963 224.74 382.321 226.477 382.321C228.679 382.321 230.433 381.972 231.74 381.273C233.047 380.575 234.032 379.573 234.694 378.266C235.375 376.959 235.858 375.392 236.145 373.566ZM273.205 381.784V386H252.5V381.784H273.205ZM253.547 346.898V386H248.364V346.898H253.547ZM270.466 363.71V367.926H252.5V363.71H270.466ZM272.937 346.898V351.142H252.5V346.898H272.937ZM309.702 346.898V386H304.492L284.807 355.841V386H279.624V346.898H284.807L304.572 377.138V346.898H309.702ZM332.529 346.898V386H327.426V346.898H332.529ZM345.097 346.898V351.142H314.885V346.898H345.097ZM350.898 346.898H363.842C366.778 346.898 369.258 347.346 371.281 348.241C373.322 349.136 374.871 350.461 375.927 352.216C377.001 353.952 377.539 356.092 377.539 358.634C377.539 360.425 377.172 362.063 376.438 363.549C375.721 365.017 374.683 366.27 373.322 367.309C371.979 368.329 370.368 369.09 368.488 369.591L367.038 370.155H354.873L354.819 365.939H364.003C365.865 365.939 367.414 365.617 368.649 364.972C369.885 364.31 370.816 363.424 371.442 362.313C372.069 361.203 372.382 359.977 372.382 358.634C372.382 357.13 372.087 355.814 371.496 354.687C370.905 353.559 369.974 352.69 368.703 352.082C367.45 351.455 365.83 351.142 363.842 351.142H356.081V386H350.898V346.898ZM373.752 386L364.245 368.275L369.643 368.249L379.284 385.678V386H373.752ZM414.895 365.214V367.685C414.895 370.621 414.528 373.253 413.793 375.58C413.059 377.908 412.003 379.886 410.625 381.515C409.246 383.144 407.59 384.389 405.656 385.248C403.741 386.107 401.592 386.537 399.211 386.537C396.901 386.537 394.78 386.107 392.846 385.248C390.931 384.389 389.265 383.144 387.851 381.515C386.455 379.886 385.371 377.908 384.602 375.58C383.832 373.253 383.447 370.621 383.447 367.685V365.214C383.447 362.278 383.823 359.655 384.575 357.345C385.345 355.018 386.428 353.039 387.824 351.41C389.221 349.763 390.877 348.51 392.792 347.65C394.726 346.791 396.848 346.361 399.157 346.361C401.538 346.361 403.687 346.791 405.603 347.65C407.536 348.51 409.192 349.763 410.571 351.41C411.967 353.039 413.033 355.018 413.767 357.345C414.519 359.655 414.895 362.278 414.895 365.214ZM409.765 367.685V365.16C409.765 362.833 409.523 360.774 409.04 358.983C408.575 357.193 407.885 355.689 406.972 354.472C406.059 353.254 404.94 352.332 403.615 351.706C402.308 351.079 400.822 350.766 399.157 350.766C397.546 350.766 396.087 351.079 394.78 351.706C393.491 352.332 392.381 353.254 391.45 354.472C390.537 355.689 389.829 357.193 389.328 358.983C388.827 360.774 388.576 362.833 388.576 365.16V367.685C388.576 370.03 388.827 372.107 389.328 373.915C389.829 375.705 390.546 377.218 391.477 378.454C392.425 379.671 393.544 380.593 394.833 381.22C396.14 381.846 397.6 382.16 399.211 382.16C400.894 382.16 402.389 381.846 403.696 381.22C405.003 380.593 406.104 379.671 406.999 378.454C407.912 377.218 408.601 375.705 409.067 373.915C409.532 372.107 409.765 370.03 409.765 367.685Z" fill="#FF0000"/>
</svg>
